<?xml version="1.0" encoding="iso-8859-1"?>
<!-- Uploaded to: SVG Repo, www.svgrepo.com, Generator: SVG Repo Mixer Tools -->
<svg version="1.1" id="Layer_1" xmlns="http://www.w3.org/2000/svg" xmlns:xlink="http://www.w3.org/1999/xlink" 
	 viewBox="0 0 512 512" xml:space="preserve">
<rect x="218.349" y="151.668" style="fill:#91DDE2;" width="75.312" height="345.435"/>
<g>
	<rect x="131.036" y="240.695" style="fill:#126B80;" width="87.313" height="75.312"/>
	<rect x="293.661" y="240.695" style="fill:#126B80;" width="87.313" height="75.312"/>
</g>
<path d="M380.961,225.792h-72.398v-74.129c0-8.233-6.676-14.907-14.907-14.907h-75.308c-8.233,0-14.907,6.674-14.907,14.907v74.129
	h-72.401c-8.233,0-14.907,6.674-14.907,14.907v75.308c0,8.233,6.674,14.907,14.907,14.907h72.399v166.178
	c0,8.233,6.674,14.907,14.907,14.907h75.308c8.232,0,14.907-6.674,14.907-14.907V330.915h72.398c8.232,0,14.907-6.674,14.907-14.907
	V240.7C395.868,232.466,389.193,225.792,380.961,225.792z M145.947,301.1v-45.493h57.492V301.1H145.947z M278.747,482.185h-45.493
	V316.008V240.7v-74.129h45.493V240.7v75.308V482.185z M366.053,301.1h-57.49v-45.493h57.49V301.1z"/>
<path d="M256.001,95.747c-8.233,0-14.907-6.674-14.907-14.907V62.274c0-8.233,6.674-14.907,14.907-14.907
	c8.232,0,14.907,6.674,14.907,14.907V80.84C270.908,89.072,264.233,95.747,256.001,95.747z"/>
<path d="M256.001,29.807c-0.969,0-1.953-0.089-2.907-0.283c-0.954-0.194-1.893-0.477-2.788-0.85
	c-0.909-0.373-1.774-0.835-2.579-1.371c-0.82-0.552-1.58-1.178-2.266-1.863c-2.773-2.773-4.368-6.604-4.368-10.54
	c0-0.969,0.104-1.953,0.298-2.907c0.179-0.954,0.477-1.893,0.85-2.788c0.373-0.909,0.835-1.774,1.371-2.579
	c0.537-0.82,1.163-1.58,1.849-2.266s1.446-1.312,2.266-1.849c0.805-0.537,1.67-0.999,2.579-1.371
	c0.894-0.373,1.834-0.656,2.788-0.85c1.923-0.388,3.906-0.388,5.814,0c0.954,0.194,1.893,0.477,2.786,0.85
	c0.909,0.373,1.774,0.835,2.579,1.371c0.82,0.537,1.58,1.163,2.266,1.849c2.773,2.773,4.369,6.619,4.369,10.54
	s-1.595,7.767-4.369,10.54c-0.686,0.686-1.446,1.312-2.266,1.863c-0.805,0.537-1.67,0.999-2.579,1.371
	c-0.894,0.373-1.832,0.656-2.786,0.85C257.952,29.718,256.968,29.807,256.001,29.807z"/>
<path d="M364.964,187.197h-18.564c-8.232,0-14.907-6.674-14.907-14.907c0-8.233,6.676-14.907,14.907-14.907h18.564
	c8.232,0,14.907,6.674,14.907,14.907C379.871,180.523,373.197,187.197,364.964,187.197z"/>
<path d="M412.335,187.2c-0.969,0-1.954-0.104-2.907-0.298c-0.953-0.194-1.895-0.477-2.788-0.85
	c-0.909-0.373-1.774-0.835-2.579-1.371c-0.82-0.537-1.58-1.163-2.266-1.849c-0.686-0.686-1.312-1.446-1.849-2.266
	c-0.535-0.805-0.999-1.67-1.372-2.579c-0.373-0.894-0.671-1.834-0.85-2.788c-0.194-0.954-0.297-1.938-0.297-2.907
	s0.103-1.953,0.297-2.922c0.179-0.939,0.477-1.878,0.85-2.788c0.373-0.894,0.836-1.759,1.372-2.564
	c0.537-0.82,1.163-1.58,1.849-2.266c0.686-0.686,1.446-1.312,2.266-1.863c0.805-0.537,1.67-0.999,2.579-1.371
	c0.894-0.373,1.834-0.656,2.788-0.85c1.923-0.373,3.891-0.388,5.812,0c0.956,0.194,1.895,0.477,2.804,0.85
	c0.894,0.373,1.759,0.835,2.564,1.371c0.82,0.552,1.58,1.178,2.266,1.863c0.686,0.686,1.312,1.446,1.863,2.266
	c0.537,0.805,0.984,1.67,1.357,2.564c0.373,0.909,0.671,1.849,0.865,2.788c0.194,0.969,0.283,1.953,0.283,2.922
	c0,0.969-0.091,1.953-0.283,2.907c-0.192,0.954-0.492,1.893-0.865,2.788c-0.373,0.909-0.82,1.774-1.357,2.579
	c-0.552,0.82-1.178,1.58-1.863,2.266c-0.686,0.686-1.446,1.312-2.266,1.849c-0.805,0.537-1.67,0.999-2.564,1.371
	c-0.909,0.373-1.849,0.656-2.804,0.85C414.286,187.096,413.302,187.2,412.335,187.2z"/>
<path d="M165.601,187.197h-18.564c-8.233,0-14.907-6.674-14.907-14.907c0-8.233,6.674-14.907,14.907-14.907h18.564
	c8.233,0,14.907,6.674,14.907,14.907C180.508,180.523,173.834,187.197,165.601,187.197z"/>
<path d="M99.665,187.2c-0.969,0-1.953-0.104-2.907-0.298c-0.954-0.194-1.893-0.477-2.803-0.85c-0.894-0.373-1.759-0.835-2.564-1.371
	c-0.82-0.537-1.58-1.163-2.266-1.849c-2.773-2.773-4.368-6.619-4.368-10.54c0-0.969,0.104-1.953,0.298-2.922
	c0.179-0.939,0.477-1.878,0.85-2.788c0.373-0.894,0.835-1.759,1.371-2.564c0.537-0.82,1.163-1.58,1.849-2.266
	c0.686-0.686,1.446-1.312,2.266-1.863c0.805-0.537,1.67-0.999,2.564-1.371c0.909-0.373,1.849-0.656,2.803-0.85
	c1.923-0.388,3.891-0.388,5.814,0c0.954,0.194,1.893,0.477,2.788,0.85c0.909,0.373,1.774,0.835,2.579,1.371
	c0.82,0.552,1.58,1.178,2.266,1.863c0.686,0.686,1.312,1.446,1.849,2.266c0.537,0.805,0.999,1.67,1.371,2.564
	c0.373,0.909,0.656,1.849,0.85,2.788c0.194,0.969,0.298,1.953,0.298,2.922c0,3.921-1.595,7.767-4.368,10.54
	c-0.686,0.686-1.446,1.312-2.266,1.849c-0.805,0.537-1.67,0.999-2.579,1.371c-0.894,0.373-1.834,0.656-2.788,0.85
	C101.619,187.096,100.634,187.2,99.665,187.2z"/>
<path d="M319.921,123.274c-3.816,0-7.63-1.455-10.541-4.366c-5.821-5.821-5.821-15.261,0-21.084l46.623-46.623
	c5.823-5.821,15.259-5.821,21.084,0c5.821,5.821,5.821,15.261,0,21.084l-46.623,46.623
	C327.552,121.819,323.737,123.274,319.921,123.274z"/>
<path d="M192.078,123.274c-3.815,0-7.631-1.455-10.541-4.366l-46.624-46.623c-5.821-5.821-5.821-15.261,0-21.084
	c5.821-5.821,15.261-5.821,21.084,0l46.623,46.623c5.821,5.821,5.821,15.261,0,21.084
	C199.709,121.819,195.893,123.274,192.078,123.274z"/>
</svg>