<svg width="512" height="512" viewBox="0 0 512 512" fill="none" xmlns="http://www.w3.org/2000/svg">
<path d="M293.661 151.668H218.349V497.103H293.661V151.668Z" fill="#07223B"/>
<path d="M218.349 240.695H131.036V316.007H218.349V240.695Z" fill="#111C32"/>
<path d="M380.974 240.695H293.661V316.007H380.974V240.695Z" fill="#111C32"/>
<path d="M380.961 225.792H308.563V151.663C308.563 143.43 301.887 136.756 293.656 136.756H218.348C210.115 136.756 203.441 143.43 203.441 151.663V225.792H131.04C122.807 225.792 116.133 232.466 116.133 240.699V316.007C116.133 324.24 122.807 330.914 131.04 330.914H203.439V497.092C203.439 505.325 210.113 511.999 218.346 511.999H293.654C301.886 511.999 308.561 505.325 308.561 497.092V330.915H380.959C389.191 330.915 395.866 324.241 395.866 316.008V240.7C395.868 232.466 389.193 225.792 380.961 225.792ZM145.947 301.1V255.607H203.439V301.1H145.947ZM278.747 482.185H233.254V316.008V240.7V166.571H278.747V240.7V316.008V482.185ZM366.053 301.1H308.563V255.607H366.053V301.1Z" fill="black"/>
</svg>
