<svg width="512" height="512" viewBox="0 0 512 512" fill="none" xmlns="http://www.w3.org/2000/svg">
<g clip-path="url(#clip0_8_2)">
<path d="M293.661 151.668H218.349V497.103H293.661V151.668Z" fill="#07223B"/>
<path d="M218.349 240.695H131.036V316.007H218.349V240.695Z" fill="#111C32"/>
<path d="M380.974 240.695H293.661V316.007H380.974V240.695Z" fill="#111C32"/>
<path d="M380.961 225.792H308.563V151.663C308.563 143.43 301.887 136.756 293.656 136.756H218.348C210.115 136.756 203.441 143.43 203.441 151.663V225.792H131.04C122.807 225.792 116.133 232.466 116.133 240.699V316.007C116.133 324.24 122.807 330.914 131.04 330.914H203.439V497.092C203.439 505.325 210.113 511.999 218.346 511.999H293.654C301.886 511.999 308.561 505.325 308.561 497.092V330.915H380.959C389.191 330.915 395.866 324.241 395.866 316.008V240.7C395.868 232.466 389.193 225.792 380.961 225.792ZM145.947 301.1V255.607H203.439V301.1H145.947ZM278.747 482.185H233.254V316.008V240.7V166.571H278.747V240.7V316.008V482.185ZM366.053 301.1H308.563V255.607H366.053V301.1Z" fill="black"/>
<path d="M256.001 95.747C247.768 95.747 241.094 89.073 241.094 80.84V62.274C241.094 54.041 247.768 47.367 256.001 47.367C264.233 47.367 270.908 54.041 270.908 62.274V80.84C270.908 89.072 264.233 95.747 256.001 95.747Z" fill="black"/>
<path d="M256.001 29.807C255.032 29.807 254.048 29.718 253.094 29.524C252.14 29.33 251.201 29.047 250.306 28.674C249.397 28.301 248.532 27.839 247.727 27.303C246.907 26.751 246.147 26.125 245.461 25.44C242.688 22.667 241.093 18.836 241.093 14.9C241.093 13.931 241.197 12.947 241.391 11.993C241.57 11.039 241.868 10.1 242.241 9.20499C242.614 8.29599 243.076 7.43099 243.612 6.62599C244.149 5.80599 244.775 5.04599 245.461 4.35999C246.147 3.67399 246.907 3.04799 247.727 2.51099C248.532 1.97399 249.397 1.51199 250.306 1.13999C251.2 0.766993 252.14 0.483993 253.094 0.289993C255.017 -0.0980071 257 -0.0980071 258.908 0.289993C259.862 0.483993 260.801 0.766993 261.694 1.13999C262.603 1.51299 263.468 1.97499 264.273 2.51099C265.093 3.04799 265.853 3.67399 266.539 4.35999C269.312 7.13299 270.908 10.979 270.908 14.9C270.908 18.821 269.313 22.667 266.539 25.44C265.853 26.126 265.093 26.752 264.273 27.303C263.468 27.84 262.603 28.302 261.694 28.674C260.8 29.047 259.862 29.33 258.908 29.524C257.952 29.718 256.968 29.807 256.001 29.807Z" fill="black"/>
<path d="M364.964 187.197H346.4C338.168 187.197 331.493 180.523 331.493 172.29C331.493 164.057 338.169 157.383 346.4 157.383H364.964C373.196 157.383 379.871 164.057 379.871 172.29C379.871 180.523 373.197 187.197 364.964 187.197Z" fill="black"/>
<path d="M412.335 187.2C411.366 187.2 410.381 187.096 409.428 186.902C408.475 186.708 407.533 186.425 406.64 186.052C405.731 185.679 404.866 185.217 404.061 184.681C403.241 184.144 402.481 183.518 401.795 182.832C401.109 182.146 400.483 181.386 399.946 180.566C399.411 179.761 398.947 178.896 398.574 177.987C398.201 177.093 397.903 176.153 397.724 175.199C397.53 174.245 397.427 173.261 397.427 172.292C397.427 171.323 397.53 170.339 397.724 169.37C397.903 168.431 398.201 167.492 398.574 166.582C398.947 165.688 399.41 164.823 399.946 164.018C400.483 163.198 401.109 162.438 401.795 161.752C402.481 161.066 403.241 160.44 404.061 159.889C404.866 159.352 405.731 158.89 406.64 158.518C407.534 158.145 408.474 157.862 409.428 157.668C411.351 157.295 413.319 157.28 415.24 157.668C416.196 157.862 417.135 158.145 418.044 158.518C418.938 158.891 419.803 159.353 420.608 159.889C421.428 160.441 422.188 161.067 422.874 161.752C423.56 162.438 424.186 163.198 424.737 164.018C425.274 164.823 425.721 165.688 426.094 166.582C426.467 167.491 426.765 168.431 426.959 169.37C427.153 170.339 427.242 171.323 427.242 172.292C427.242 173.261 427.151 174.245 426.959 175.199C426.767 176.153 426.467 177.092 426.094 177.987C425.721 178.896 425.274 179.761 424.737 180.566C424.185 181.386 423.559 182.146 422.874 182.832C422.188 183.518 421.428 184.144 420.608 184.681C419.803 185.218 418.938 185.68 418.044 186.052C417.135 186.425 416.195 186.708 415.24 186.902C414.286 187.096 413.302 187.2 412.335 187.2Z" fill="black"/>
<path d="M165.601 187.197H147.037C138.804 187.197 132.13 180.523 132.13 172.29C132.13 164.057 138.804 157.383 147.037 157.383H165.601C173.834 157.383 180.508 164.057 180.508 172.29C180.508 180.523 173.834 187.197 165.601 187.197Z" fill="black"/>
<path d="M99.665 187.2C98.696 187.2 97.712 187.096 96.758 186.902C95.804 186.708 94.865 186.425 93.955 186.052C93.061 185.679 92.196 185.217 91.391 184.681C90.571 184.144 89.811 183.518 89.125 182.832C86.352 180.059 84.757 176.213 84.757 172.292C84.757 171.323 84.861 170.339 85.055 169.37C85.234 168.431 85.532 167.492 85.905 166.582C86.278 165.688 86.74 164.823 87.276 164.018C87.813 163.198 88.439 162.438 89.125 161.752C89.811 161.066 90.571 160.44 91.391 159.889C92.196 159.352 93.061 158.89 93.955 158.518C94.864 158.145 95.804 157.862 96.758 157.668C98.681 157.28 100.649 157.28 102.572 157.668C103.526 157.862 104.465 158.145 105.36 158.518C106.269 158.891 107.134 159.353 107.939 159.889C108.759 160.441 109.519 161.067 110.205 161.752C110.891 162.438 111.517 163.198 112.054 164.018C112.591 164.823 113.053 165.688 113.425 166.582C113.798 167.491 114.081 168.431 114.275 169.37C114.469 170.339 114.573 171.323 114.573 172.292C114.573 176.213 112.978 180.059 110.205 182.832C109.519 183.518 108.759 184.144 107.939 184.681C107.134 185.218 106.269 185.68 105.36 186.052C104.466 186.425 103.526 186.708 102.572 186.902C101.619 187.096 100.634 187.2 99.665 187.2Z" fill="black"/>
<path d="M319.921 123.274C316.105 123.274 312.291 121.819 309.38 118.908C303.559 113.087 303.559 103.647 309.38 97.824L356.003 51.201C361.826 45.38 371.262 45.38 377.087 51.201C382.908 57.022 382.908 66.462 377.087 72.285L330.464 118.908C327.552 121.819 323.737 123.274 319.921 123.274Z" fill="black"/>
<path d="M192.078 123.274C188.263 123.274 184.447 121.819 181.537 118.908L134.913 72.285C129.092 66.464 129.092 57.024 134.913 51.201C140.734 45.38 150.174 45.38 155.997 51.201L202.62 97.824C208.441 103.645 208.441 113.085 202.62 118.908C199.709 121.819 195.893 123.274 192.078 123.274Z" fill="black"/>
</g>
<defs>
<clipPath id="clip0_8_2">
<rect width="512" height="512" fill="white"/>
</clipPath>
</defs>
</svg>
